<?xml version="1.0" encoding="UTF-8"?>
<svg version="1.1" xmlns="http://www.w3.org/2000/svg" width="48" height="48">
<path d="M0 0 C15.84 0 31.68 0 48 0 C48 15.84 48 31.68 48 48 C32.16 48 16.32 48 0 48 C0 32.16 0 16.32 0 0 Z " fill="#0BB99F" transform="translate(0,0)"/>
<path d="M0 0 C7.59 0 15.18 0 23 0 C21.35 1.32 19.7 2.64 18 4 C16.3999485 7.20010301 16.50485431 10.52710317 17 14 C19.04625315 16.955699 20.28984065 17.80632018 23.75 18.75 C24.4925 18.8325 25.235 18.915 26 19 C25.67 19.66 25.34 20.32 25 21 C23.68 21 22.36 21 21 21 C21.33 21.99 21.66 22.98 22 24 C21.93684816 26.76719897 21.81361605 29.49149033 21.625 32.25 C21.58117187 32.98863281 21.53734375 33.72726563 21.4921875 34.48828125 C21.20159074 39.06518027 20.65314517 43.42798379 20 48 C13.4 48 6.8 48 0 48 C0 32.16 0 16.32 0 0 Z " fill="#03B79C" transform="translate(0,0)"/>
<path d="M0 0 C4.35321372 0.99761148 5.65945491 2.97016368 8 6.6875 C8.54935358 10.61145413 8.23937849 13.38736328 6 16.6875 C2.48175489 19.03299674 1.14224306 19.26741403 -3 18.6875 C-5.85801731 16.69931405 -7.61901083 15.21145669 -8.484375 11.75 C-8.75726358 7.74763415 -8.24266331 6.0300835 -5.875 2.6875 C-3 0.6875 -3 0.6875 0 0 Z " fill="#F7FCFC" transform="translate(24,0.3125)"/>
<path d="M0 0 C0 8.91 0 17.82 0 27 C-1.98 27 -3.96 27 -6 27 C-6.2655702 6.25601645 -6.2655702 6.25601645 -3.5625 1.4375 C-2 0 -2 0 0 0 Z " fill="#E3F6F4" transform="translate(18,21)"/>
<path d="M0 0 C0.99 0 1.98 0 3 0 C5.29612756 15.74487472 5.29612756 15.74487472 5 23 C2.69 23 0.38 23 -2 23 C-1.85823579 20.29139876 -1.71171784 17.58319248 -1.5625 14.875 C-1.50352539 13.73417969 -1.50352539 13.73417969 -1.44335938 12.5703125 C-1.20490998 8.31490797 -0.79769763 4.19629174 0 0 Z " fill="#E9F8F6" transform="translate(22,25)"/>
<path d="M0 0 C1.98 0.99 1.98 0.99 4 2 C4.609375 3.890625 4.609375 3.890625 4.75 6.25 C4.80542969 7.12914062 4.86085938 8.00828125 4.91796875 8.9140625 C5.06939812 14.61069105 5.07389163 20.30213427 5 26 C3.35 26 1.7 26 0 26 C0 17.42 0 8.84 0 0 Z " fill="#F8FDFC" transform="translate(30,22)"/>
</svg>
