<svg version="1.1" xmlns="http://www.w3.org/2000/svg" width="180.073" height="32" viewBox="0 0 180.073 32"><path d="M0 0h180.073v32H0z" fill="none"/><path d="M142.618 8.055c2.156 1.813 3.781 3.771 4.12 6.632 0.109 2.8 -0.327 5.204 -2.054 7.468 -1.935 2.061 -3.977 2.871 -6.788 2.963 -2.379 0.034 -4.108 -0.153 -6.116 -1.554l-0.945 -0.6c-2.001 -1.791 -2.677 -4.576 -2.945 -7.127 0.027 -2.345 1.173 -4.816 2.727 -6.527 3.627 -3.01 7.81 -3.43 12 -1.254" fill="#4962FE"/><path d="M39.09 8.303C40.658 9.598 41.828 11.156 42.473 13.091c0.028 0.406 0.04 0.813 0.042 1.22l0.006 0.742 0.001 0.799 0.003 0.825q0.002 0.864 0.002 1.729c0.001 0.879 0.006 1.758 0.012 2.637q0.001 0.841 0.001 1.681l0.006 0.793C42.538 25.744 42.083 27.283 40.727 29.091l-0.341 0.457c-1.308 1.531 -2.945 2.114 -4.895 2.452 -2.131 0.129 -4.267 0.074 -6.4 0 -0.598 -1.481 -0.998 -2.777 -1.164 -4.364l0.671 -0.017c1.007 -0.028 2.013 -0.06 3.02 -0.092 0.349 -0.009 0.697 -0.018 1.056 -0.027l1.02 -0.034 0.937 -0.028c0.881 -0.095 1.526 -0.27 2.314 -0.675 0.385 -0.697 0.385 -0.697 0.582 -1.455l0.291 -0.873c0.035 -0.732 0.055 -1.455 0.059 -2.188l0.005 -0.649q0.004 -0.68 0.006 -1.359c0.003 -0.689 0.012 -1.379 0.021 -2.068q0.003 -0.662 0.005 -1.323l0.011 -0.62c-0.006 -1.36 -0.268 -2.273 -0.979 -3.429 -1.091 -1.063 -2.014 -1.26 -3.491 -1.327 -1.119 0.039 -1.905 0.104 -2.8 0.8 -1.076 1.274 -1.433 2.286 -1.382 3.982 0.208 1.178 0.769 2.066 1.564 2.945 1.716 1.086 3.529 1.051 5.527 1.164l-1.164 4.364c-2.945 0.175 -5.269 -0.167 -7.677 -1.977 -2.2 -2.037 -2.93 -4.318 -3.177 -7.241 0.047 -2.445 1.098 -4.569 2.775 -6.303 3.31 -3.076 8.2 -3.356 11.969 -0.903" fill="#4962FE"/><path d="M146.618 7.273h4.655c0.958 1.844 1.756 3.726 2.527 5.655a785.165 785.165 0 0 0 0.694 1.726l0.305 0.763c0.207 0.571 0.207 0.571 0.546 0.874l4.364 -9.018h1.745q0.863 1.778 1.724 3.556 0.293 0.605 0.586 1.21 0.422 0.869 0.843 1.74l0.265 0.545c0.361 0.747 0.682 1.47 0.945 2.258l0.342 -0.823q0.628 -1.507 1.257 -3.014 0.273 -0.653 0.544 -1.306 0.39 -0.937 0.782 -1.874l0.246 -0.593c0.576 -1.375 0.576 -1.375 0.9 -1.699 0.785 -0.021 1.561 -0.027 2.346 -0.018l0.669 0.004q0.82 0.006 1.64 0.014 -0.851 2.001 -1.713 3.997c-0.611 1.418 -1.211 2.839 -1.806 4.263a628.946 628.946 0 0 1 -1.314 3.104q-0.332 0.783 -0.657 1.568a210.037 210.037 0 0 1 -0.943 2.228l-0.28 0.689c-0.274 0.629 -0.274 0.629 -0.852 1.607 -0.798 0.289 -0.798 0.289 -1.455 0.291 -1.744 -3.256 -3.425 -6.524 -4.945 -9.891 -1.744 3.256 -3.425 6.524 -4.945 9.891h-1.455c-1.933 -4.127 -3.782 -8.286 -5.582 -12.473l-0.299 -0.693q-0.422 -0.979 -0.841 -1.959l-0.258 -0.599C146.618 7.921 146.618 7.921 146.618 7.273" fill="#4961FE"/><path d="M92.218 0h4.655l0.291 14.545c2.523 -3.011 2.523 -3.011 4.709 -6.255 0.508 -0.69 0.853 -0.974 1.703 -1.122 1.557 -0.117 3.089 -0.03 4.643 0.104 -0.787 1.453 -1.836 2.666 -2.891 3.927 -0.531 0.639 -1.062 1.277 -1.59 1.918 -0.385 0.459 -0.787 0.904 -1.193 1.345 -0.512 0.63 -0.512 0.63 -0.37 1.361 0.243 0.815 0.525 1.245 1.073 1.889l0.523 0.622 0.557 0.646q0.557 0.662 1.114 1.324l0.541 0.639c0.6 0.712 1.187 1.434 1.764 2.165l0.461 0.581C108.509 24.145 108.509 24.145 108.509 24.727c-4.787 0.575 -4.787 0.575 -6.44 -0.709 -0.642 -0.786 -1.157 -1.645 -1.662 -2.522 -0.578 -0.952 -1.281 -1.806 -1.971 -2.678L97.164 17.164l-0.291 7.564h-4.655z" fill="#4B63FE"/><path d="M19.179 8.503c1.619 1.382 3.032 3.341 3.298 5.498 0.024 0.689 0.022 1.372 0.009 2.061l-0.004 0.754c-0.005 0.788 -0.016 1.577 -0.027 2.365q-0.006 0.806 -0.012 1.612C22.433 22.105 22.418 23.416 22.4 24.727H18.036l-0.023 -2.082q-0.017 -1.008 -0.038 -2.016 -0.012 -0.696 -0.018 -1.392c0.029 -3.962 0.029 -3.962 -1.914 -7.302C14.674 11.279 13.108 11.439 11.636 11.636c-1.174 0.547 -1.84 1.435 -2.327 2.618 -0.206 1.453 -0.161 2.594 0.509 3.909 1.245 1.418 2.21 1.772 4.073 1.964l0.615 0.072c0.498 0.058 0.996 0.111 1.494 0.164 -0.311 1.488 -0.649 2.93 -1.164 4.364 -3.251 0.161 -5.631 -0.471 -8.145 -2.618 -1.922 -2.287 -2.466 -4.448 -2.419 -7.405C4.472 12.458 5.346 10.583 6.982 9.018c3.735 -2.726 8.315 -3.299 12.197 -0.515" fill="#4961FE"/><path d="M61.964 7.273h4.945a7063.283 7063.283 0 0 1 2.122 4.722q0.388 0.863 0.776 1.727l0.471 1.048A61.964 61.964 0 0 1 71.273 17.164c0.775 -0.775 1.104 -1.683 1.53 -2.675l0.271 -0.624q0.428 -0.986 0.854 -1.974l0.581 -1.338C74.983 9.461 75.455 8.367 75.927 7.273h4.945a6021.245 6021.245 0 0 1 -2.909 6.691l-0.237 0.543c-1.887 4.335 -3.782 8.667 -5.711 12.983l-0.501 1.124q-0.346 0.774 -0.693 1.549l-0.397 0.887C70.109 31.709 70.109 31.709 69.818 32c-0.785 0.021 -1.561 0.027 -2.345 0.018l-0.669 -0.004q-0.82 -0.006 -1.64 -0.014c0.332 -1.136 0.775 -2.18 1.285 -3.244l0.396 -0.83a167.855 167.855 0 0 1 0.83 -1.702l0.393 -0.831c0.119 -0.246 0.239 -0.493 0.362 -0.746 0.558 -1.963 -0.369 -3.676 -1.199 -5.416l-0.342 -0.736c-0.36 -0.772 -0.724 -1.542 -1.088 -2.312a2548.077 2548.077 0 0 1 -1.079 -2.306q-0.335 -0.715 -0.671 -1.429a274.619 274.619 0 0 1 -1.583 -3.414l-0.293 -0.643C61.964 7.855 61.964 7.855 61.964 7.273" fill="#4861FE"/><path d="m117.946 6.873 0.662 0.01c2.417 0.07 3.953 0.62 5.715 2.338 1.409 1.979 1.811 3.823 1.755 6.217l-0.005 0.811a254.255 254.255 0 0 1 -0.036 2.534q-0.009 0.865 -0.016 1.73c-0.013 1.405 -0.033 2.81 -0.057 4.215h-4.364l-0.013 -0.96c-0.017 -1.181 -0.04 -2.362 -0.063 -3.543a258.037 258.037 0 0 1 -0.024 -1.53 252.219 252.219 0 0 0 -0.041 -2.205l-0.006 -0.686c-0.037 -1.395 -0.243 -2.378 -1.016 -3.584 -0.916 -0.611 -1.228 -0.682 -2.291 -0.709l-0.743 -0.035c-1.118 0.243 -1.501 0.721 -2.202 1.617 -0.213 0.896 -0.21 1.77 -0.206 2.687l-0.013 0.777a196.364 196.364 0 0 0 -0.017 2.445q-0.01 0.831 -0.022 1.662c-0.018 1.355 -0.028 2.71 -0.032 4.065h-4.655q-0.043 -2.468 -0.064 -4.936 -0.009 -0.838 -0.024 -1.676c-0.119 -6.744 -0.119 -6.744 2.215 -9.37 1.604 -1.581 3.407 -1.915 5.564 -1.873" fill="#4961FE"/><path d="M45.382 7.273h4.364l0.013 0.96c0.017 1.181 0.04 2.362 0.063 3.543q0.015 0.765 0.024 1.53c0.01 0.735 0.025 1.47 0.041 2.205l0.006 0.686c0.037 1.395 0.243 2.378 1.016 3.584 0.905 0.603 1.132 0.662 2.164 0.655l0.671 0.005c0.757 -0.089 1.194 -0.219 1.819 -0.659 0.7 -1.305 0.682 -2.571 0.702 -4.015l0.017 -0.737c0.017 -0.774 0.031 -1.547 0.044 -2.321l0.034 -1.578q0.041 -1.929 0.075 -3.859h4.655q0.043 2.406 0.064 4.812 0.009 0.817 0.024 1.634c0.061 3.35 0.088 6.046 -1.797 8.936 -1.465 1.465 -3.039 2.281 -5.109 2.441L53.236 25.091l-1.036 0.005c-2.188 -0.169 -3.752 -1.066 -5.273 -2.623 -1.414 -1.987 -1.674 -3.739 -1.631 -6.109l0.004 -0.792c0.005 -0.827 0.016 -1.654 0.027 -2.481q0.006 -0.846 0.012 -1.692c0.01 -1.376 0.025 -2.751 0.043 -4.126" fill="#4860FE"/><path d="M85.673 6.891 86.4 6.982c0.566 0.849 0.664 1.089 0.746 2.045l0.065 0.714 0.063 0.774 0.072 0.811c0.076 0.861 0.147 1.722 0.219 2.583l0.145 1.676q0.147 1.683 0.289 3.366 0.148 1.731 0.314 3.461l0.082 0.865q0.077 0.808 0.157 1.615c0.411 4.338 0.411 4.338 -0.35 5.781 -0.642 0.752 -1.114 1.264 -2.116 1.425 -1.201 0.02 -1.84 0.009 -2.884 -0.643 -1.147 -1.219 -0.938 -2.358 -0.926 -3.973 0.081 -2.65 0.441 -5.286 0.744 -7.918l0.195 -1.745q0.19 -1.7 0.386 -3.4 0.182 -1.592 0.339 -3.187l0.075 -0.737q0.069 -0.681 0.131 -1.362c0.213 -2.077 0.213 -2.077 1.528 -2.241" fill="#33AE99"/><path d="M140.073 11.855c1.11 0.999 1.812 1.816 1.95 3.351 0.029 1.555 -0.019 2.672 -0.932 3.994 -1.395 1.29 -2.462 1.531 -4.303 1.495 -1.432 -0.091 -2.109 -0.577 -3.042 -1.623 -1 -1.194 -1.226 -2.272 -1.211 -3.803 0.22 -1.32 0.941 -2.393 1.866 -3.342 1.789 -0.93 3.881 -0.969 5.673 -0.073" fill="#FCFCFE"/><path d="M86.691 0.291c0.727 0.436 0.727 0.436 1.164 1.164 0.176 0.817 0.192 1.512 0 2.327 -0.749 0.881 -1.208 1.123 -2.345 1.309 -1.043 -0.177 -1.369 -0.492 -2.018 -1.309 -0.413 -0.826 -0.383 -1.412 -0.291 -2.327 0.861 -1.363 2.003 -1.456 3.491 -1.164" fill="#32AD99"/></svg>