<svg xmlns="http://www.w3.org/2000/svg" id="Layer_2" data-name="Layer 2" viewBox="0 0 905.99 169.99"><defs><style>      .cls-1 {        fill: #2eac97;      }      .cls-1, .cls-2 {        stroke-width: 0px;      }      .cls-2 {        fill: #fff;      }    </style></defs><g id="Layer_1-2" data-name="Layer 1"><g><path class="cls-2" d="M0,82.68c0-28.2,21.06-47.52,48.48-47.52s47.91,19.12,47.91,48.48v47.13h-24.15v-46.17c0-16.81-10.62-26.08-23.95-26.08s-23.76,10.24-23.76,24.15,10.24,25.11,27.62,25.11h10.43l-6.76,22.99h-5.6C20.48,130.77,0,110.1,0,82.68Z"></path><path class="cls-2" d="M125.37,146.81h30.13c13.33,0,24.15-7.92,24.15-23.37v-38.83c0-16.81-10.62-26.08-23.95-26.08s-23.76,10.24-23.76,24.15,10.24,25.11,27.62,25.11h10.43l-6.76,22.99h-5.6c-29.75,0-50.22-20.67-50.22-48.1s21.06-47.52,48.48-47.52,47.9,19.12,47.9,48.48v39.79c0,29.55-21.25,46.55-47.9,46.55h-24.15l-6.37-23.18Z"></path><path class="cls-2" d="M217.9,37.47h24.15v52.54c0,12.36,6.95,19.7,17.96,19.7s17.77-7.34,17.77-19.7v-52.54h24.15v52.54c0,26.46-17,43.08-41.92,43.08s-42.11-16.61-42.11-43.08v-52.54Z"></path><path class="cls-2" d="M344.42,122.27l-38.44-84.8h26.27l24.73,56.4,25.11-56.4h25.11l-58.53,131.93h-25.3l21.05-47.13Z"></path><path class="cls-1" d="M419.31,13.2C418.92,5.71,424.76,0,432.32,0c7.5,0,13.22,5.36,13.22,12.5s-4.63,11.93-11.29,12.74c-7.54.92-14.55-4.46-14.94-12.04ZM432.42,35.87h0c3.16,0,5.8,2.41,6.09,5.55l10.2,110.28c.58,9.92-7.31,18.28-17.25,18.28h0c-9.97,0-17.87-8.41-17.25-18.36l12.14-110.31c.34-3.1,2.96-5.45,6.08-5.45Z"></path><path class="cls-2" d="M491.84,86.73v44.04h-24.15V0h24.15v80.16l33.8-42.69h28.59l-36.7,45.39,38.25,47.9h-29.75l-34.19-44.04Z"></path><path class="cls-2" d="M605.81,35.16c24.92,0,41.92,16.61,41.92,43.08v52.54h-24.15v-52.54c0-12.36-7.15-19.7-17.77-19.7s-17.96,7.34-17.96,19.7v52.54h-24.15v-52.54c0-26.46,16.81-43.08,42.11-43.08Z"></path><path class="cls-2" d="M658.74,84.22c0-28.01,20.48-49.06,49.45-49.06s49.64,21.05,49.64,49.06-20.48,48.87-49.64,48.87-49.45-21.05-49.45-48.87ZM708.19,109.53c15.45,0,25.11-11.78,25.11-25.5s-9.66-25.5-25.11-25.5-24.92,11.78-24.92,25.5,9.66,25.5,24.92,25.5Z"></path><path class="cls-2" d="M756.1,37.47h25.88l21.44,51.58,24.53-51.77h7.15l24.73,51.77,21.63-51.58h24.53l-41.34,94.07h-7.15l-26.27-54.09-26.27,54.09h-7.34l-41.53-94.07Z"></path></g></g></svg>