<?xml version="1.0" encoding="UTF-8"?>
<svg version="1.1" xmlns="http://www.w3.org/2000/svg" width="619" height="110">
<path d="M0 0 C204.27 0 408.54 0 619 0 C619 36.3 619 72.6 619 110 C414.73 110 210.46 110 0 110 C0 73.7 0 37.4 0 0 Z " fill="none" transform="translate(0,0)"/>
<path d="M0 0 C7.41216038 6.23295305 12.99556153 12.96382911 14.1640625 22.796875 C14.53726405 32.42154654 13.04064903 40.6867559 7.10546875 48.46875 C0.45594376 55.55357121 -6.56442264 58.33864741 -16.22729492 58.65551758 C-24.4056193 58.77386072 -30.34648967 58.13015438 -37.25 53.3125 C-38.3225 52.631875 -39.395 51.95125 -40.5 51.25 C-47.37932624 45.0958449 -49.70187256 35.51971065 -50.625 26.75 C-50.53165146 18.6909097 -46.59376714 10.19563803 -41.25 4.3125 C-28.78149288 -6.03421528 -14.40288995 -7.47842363 0 0 Z " fill="#4962FE" transform="translate(490.25,27.6875)"/>
<path d="M0 0 C5.38751997 4.45055998 9.41203838 9.80642764 11.62890625 16.45703125 C11.72443127 17.85214562 11.76695838 19.2512959 11.77416992 20.6496582 C11.78054977 21.49095779 11.78692963 22.33225739 11.79350281 23.1990509 C11.79461563 24.10531723 11.79572845 25.01158356 11.796875 25.9453125 C11.8018676 27.34924507 11.8018676 27.34924507 11.80696106 28.78153992 C11.81202485 30.76280221 11.81436955 32.74407304 11.81420898 34.7253418 C11.81639026 37.7473774 11.83453742 40.76904487 11.85351562 43.79101562 C11.85645075 45.71744667 11.85843475 47.64387945 11.859375 49.5703125 C11.86656052 50.47050613 11.87374603 51.37069977 11.88114929 52.298172 C11.85347213 59.95151889 10.28917673 65.24333728 5.62890625 71.45703125 C5.04882812 72.23433594 5.04882812 72.23433594 4.45703125 73.02734375 C-0.03952794 78.29096304 -5.66846057 80.29541952 -12.37109375 81.45703125 C-19.69767707 81.899381 -27.0401265 81.71144282 -34.37109375 81.45703125 C-36.4247143 76.36762381 -37.80288627 71.9118231 -38.37109375 66.45703125 C-37.60966064 66.43721191 -36.84822754 66.41739258 -36.0637207 66.39697266 C-32.60333903 66.30153203 -29.1435452 66.19192913 -25.68359375 66.08203125 C-24.48541016 66.05109375 -23.28722656 66.02015625 -22.05273438 65.98828125 C-20.89580078 65.94960937 -19.73886719 65.9109375 -18.546875 65.87109375 C-17.48380127 65.83967285 -16.42072754 65.80825195 -15.32543945 65.77587891 C-12.29509467 65.44882905 -10.07772498 64.84787616 -7.37109375 63.45703125 C-6.04627829 61.06173456 -6.04627829 61.06173456 -5.37109375 58.45703125 C-5.04109375 57.46703125 -4.71109375 56.47703125 -4.37109375 55.45703125 C-4.25067999 52.94129582 -4.18304491 50.45405841 -4.16796875 47.9375 C-4.15941864 46.83321404 -4.15941864 46.83321404 -4.1506958 45.70661926 C-4.14125619 44.14907259 -4.13471594 42.59150605 -4.13085938 41.03393555 C-4.12117144 38.66354039 -4.090147 36.29401922 -4.05859375 33.92382812 C-4.05206134 32.40755721 -4.0468118 30.89128012 -4.04296875 29.375 C-4.03062195 28.67167038 -4.01827515 27.96834076 -4.0055542 27.24369812 C-4.02647137 22.56993828 -4.92736369 19.43083467 -7.37109375 15.45703125 C-11.12070144 11.80356735 -14.29496383 11.12726583 -19.37109375 10.89453125 C-23.21619427 11.02810794 -25.92151614 11.25151025 -28.99609375 13.64453125 C-32.69521533 18.02506996 -33.92276841 21.5017675 -33.74609375 27.33203125 C-33.03149053 31.38144949 -31.10214697 34.43336519 -28.37109375 37.45703125 C-22.47106651 41.18970155 -16.24158277 41.07104872 -9.37109375 41.45703125 C-10.69109375 46.40703125 -12.01109375 51.35703125 -13.37109375 56.45703125 C-23.49349406 57.05955508 -31.48258791 55.88303237 -39.76171875 49.66015625 C-47.32463593 42.65745516 -49.83211642 34.8169638 -50.68359375 24.76953125 C-50.52289003 16.3647265 -46.90912224 9.06464509 -41.14453125 3.10546875 C-29.766705 -7.47039618 -12.95699748 -8.43165404 0 0 Z " fill="#4962FE" transform="translate(134.37109375,28.54296875)"/>
<path d="M0 0 C5.28 0 10.56 0 16 0 C19.29337546 6.33805209 22.03509547 12.80867353 24.6875 19.4375 C25.48078957 21.4162815 26.27624242 23.39419761 27.07421875 25.37109375 C27.59375122 26.6693811 27.59375122 26.6693811 28.1237793 27.99389648 C28.83635349 29.95800823 28.83635349 29.95800823 30 31 C37.425 15.655 37.425 15.655 45 0 C46.98 0 48.96 0 51 0 C52.97783723 4.07398708 54.95327872 8.14912361 56.92651367 12.2253418 C57.59805714 13.61172796 58.27025301 14.99779832 58.94311523 16.38354492 C59.91041192 18.37596194 60.87535319 20.36950463 61.83984375 22.36328125 C62.14091537 22.98213699 62.441987 23.60099274 62.75218201 24.23860168 C63.99171267 26.80589068 65.09704162 29.29112486 66 32 C66.38857178 31.06615479 66.77714355 30.13230957 67.17749023 29.17016602 C68.61559414 25.71583745 70.0569324 22.26286644 71.49926758 18.81030273 C72.12385391 17.31392846 72.74755462 15.81718421 73.37036133 14.32006836 C74.2641281 12.17204177 75.16103935 10.02535244 76.05859375 7.87890625 C76.3377916 7.20598038 76.61698944 6.5330545 76.90464783 5.83973694 C78.88612829 1.11387171 78.88612829 1.11387171 80 0 C82.69654854 -0.07319621 85.36691458 -0.09242537 88.0625 -0.0625 C88.82111328 -0.05798828 89.57972656 -0.05347656 90.36132812 -0.04882812 C92.24091871 -0.0370068 94.12046899 -0.01907078 96 0 C94.04947237 4.58457348 92.08742516 9.16382666 90.11328125 13.73828125 C88.01400963 18.61060355 85.95133678 23.49685638 83.90489197 28.3915863 C82.41112966 31.95346459 80.90073734 35.50816524 79.38790894 39.0619812 C78.62870132 40.85541499 77.87636163 42.65177153 77.13088989 44.45095825 C76.06854618 47.01169259 74.9823955 49.56107471 73.890625 52.109375 C73.41431892 53.2814576 73.41431892 53.2814576 72.9283905 54.47721863 C71.98535156 56.63964844 71.98535156 56.63964844 70 60 C67.25683594 60.99316406 67.25683594 60.99316406 65 61 C59.00377558 49.80765251 53.22491337 38.57439419 48 27 C42.00377558 38.19234749 36.22491337 49.42560581 31 61 C29.35 61 27.7 61 26 61 C19.35546557 46.81336196 12.99843354 32.51650375 6.8125 18.125 C6.47322479 17.33894379 6.13394958 16.55288757 5.78439331 15.74301147 C4.81705996 13.49965503 3.85490741 11.25415466 2.89453125 9.0078125 C2.60129974 8.32863266 2.30806824 7.64945282 2.00595093 6.94969177 C0 2.23009628 0 2.23009628 0 0 Z " fill="#4961FE" transform="translate(504,25)"/>
<path d="M0 0 C5.28 0 10.56 0 16 0 C16.33 16.5 16.66 33 17 50 C25.67312708 39.64959668 25.67312708 39.64959668 33.1875 28.5 C34.93422941 26.12750928 36.12042891 25.15339888 39.04101562 24.64404297 C44.3935954 24.24117242 49.66021222 24.5423039 55 25 C52.29443097 29.99489668 48.69071904 34.16410975 45.0625 38.5 C43.23724347 40.69485676 41.41255846 42.88991817 39.59814453 45.09375 C38.27424337 46.67288539 36.89208931 48.20297323 35.49609375 49.71875 C33.73740272 51.88315752 33.73740272 51.88315752 34.22436523 54.39941406 C35.06016526 57.201725 36.02667419 58.6797006 37.9140625 60.890625 C38.80424072 61.94914673 38.80424072 61.94914673 39.71240234 63.02905273 C40.65913818 64.12842163 40.65913818 64.12842163 41.625 65.25 C42.90175399 66.76632759 44.17780281 68.28324924 45.453125 69.80078125 C46.06607422 70.52475098 46.67902344 71.2487207 47.31054688 71.99462891 C49.37366041 74.44353275 51.39070998 76.9243393 53.375 79.4375 C53.89835937 80.09621094 54.42171875 80.75492187 54.9609375 81.43359375 C56 83 56 83 56 85 C39.5438226 86.97676874 39.5438226 86.97676874 33.86328125 82.5625 C31.65698845 79.86186873 29.88543116 76.90975688 28.14892578 73.89160156 C26.16161819 70.61968078 23.74682779 67.68515717 21.375 64.6875 C19.93125 62.810625 18.4875 60.93375 17 59 C16.67 67.58 16.34 76.16 16 85 C10.72 85 5.44 85 0 85 C0 56.95 0 28.9 0 0 Z " fill="#4B63FE" transform="translate(317,0)"/>
<path d="M0 0 C5.56589303 4.74830422 10.42146485 11.48311045 11.33734131 18.90046692 C11.41904427 21.26739023 11.41206683 23.6164832 11.3671875 25.984375 C11.36294266 26.84011612 11.35869781 27.69585724 11.35432434 28.57752991 C11.33764664 31.28769545 11.3000158 33.99709373 11.26171875 36.70703125 C11.24665777 38.55402565 11.23297185 40.40103181 11.22070312 42.24804688 C11.18777901 46.75550009 11.13607344 51.26238597 11.07421875 55.76953125 C6.12421875 55.76953125 1.17421875 55.76953125 -3.92578125 55.76953125 C-3.9515625 53.40796875 -3.97734375 51.04640625 -4.00390625 48.61328125 C-4.04241966 46.30294339 -4.08754949 43.99282175 -4.13330078 41.68261719 C-4.16136707 40.08832278 -4.18265238 38.49389293 -4.19677734 36.89941406 C-4.09541184 23.28148034 -4.09541184 23.28148034 -10.77734375 11.80078125 C-15.48384844 9.541659 -20.86702196 10.09084056 -25.92578125 10.76953125 C-29.95994509 12.64866117 -32.25018466 15.70341687 -33.92578125 19.76953125 C-34.63435217 24.76248447 -34.47730816 28.68617483 -32.17578125 33.20703125 C-27.89645266 38.08071104 -24.58007852 39.29723125 -18.17578125 39.95703125 C-17.12970703 40.07981445 -17.12970703 40.07981445 -16.0625 40.20507812 C-14.35151349 40.40430258 -12.63878088 40.58843054 -10.92578125 40.76953125 C-11.99396595 45.88318139 -13.15685601 50.84181094 -14.92578125 55.76953125 C-26.10058144 56.32416288 -34.28284927 54.1503715 -42.92578125 46.76953125 C-49.53215615 38.90949459 -51.40300688 31.48019094 -51.2421875 21.31640625 C-50.55325879 13.59360046 -47.5482807 7.1475742 -41.92578125 1.76953125 C-29.08726487 -7.60033334 -13.34130582 -9.56941831 0 0 Z " fill="#4961FE" transform="translate(65.92578125,29.23046875)"/>
<path d="M0 0 C5.61 0 11.22 0 17 0 C18.81572575 4.03807177 20.63082016 8.07641541 22.44433594 12.11547852 C23.06083176 13.48803887 23.67768907 14.86043692 24.29492188 16.23266602 C25.18455694 18.21066913 26.07286934 20.18926173 26.9609375 22.16796875 C27.49509277 23.35672607 28.02924805 24.5454834 28.57958984 25.77026367 C29.7778392 28.49484957 30.91683369 31.22809971 32 34 C34.66331432 31.33668568 35.79494584 28.21399376 37.2578125 24.8046875 C37.56572723 24.09724396 37.87364197 23.38980042 38.19088745 22.66091919 C39.17337204 20.400846 40.14925128 18.1379883 41.125 15.875 C41.78993155 14.34225998 42.45529092 12.80970549 43.12109375 11.27734375 C44.75318359 7.52068808 46.37631315 3.76034004 48 0 C53.61 0 59.22 0 65 0 C61.67171238 7.66886549 58.33757735 15.33517301 55 23 C54.59760101 23.92431824 54.59760101 23.92431824 54.18707275 24.86730957 C47.69890528 39.76883703 41.18561067 54.65898083 34.55435181 69.49749756 C33.97906698 70.7849771 33.4044956 72.07277567 32.83065796 73.36090088 C32.03927122 75.13621542 31.24433992 76.90994863 30.44921875 78.68359375 C29.99893311 79.68962646 29.54864746 80.69565918 29.0847168 81.73217773 C28 84 28 84 27 85 C24.30345146 85.07319621 21.63308542 85.09242537 18.9375 85.0625 C18.17888672 85.05798828 17.42027344 85.05347656 16.63867188 85.04882812 C14.75908129 85.0370068 12.87953101 85.01907078 11 85 C12.1391859 81.09516046 13.66290588 77.50486167 15.41796875 73.84765625 C15.86720703 72.90599609 16.31644531 71.96433594 16.77929688 70.99414062 C17.71878634 69.03828252 18.66935391 67.08770758 19.63085938 65.14257812 C20.07623047 64.19962891 20.52160156 63.25667969 20.98046875 62.28515625 C21.39192139 61.43832275 21.80337402 60.59148926 22.22729492 59.71899414 C24.14507117 52.97072429 20.95741386 47.0836391 18.10546875 41.1015625 C17.71684158 40.26716644 17.32821442 39.43277039 16.92781067 38.5730896 C15.68968612 35.91957806 14.43897766 33.27223596 13.1875 30.625 C11.94970101 27.98358869 10.71448342 25.34098031 9.47932434 22.69833374 C8.71236313 21.05996515 7.94336718 19.42254686 7.17192078 17.7862854 C5.33461277 13.88590454 3.51538342 9.9774598 1.73168945 6.05224609 C1.39917679 5.32282806 1.06666412 4.59341003 0.72407532 3.84188843 C0 2 0 2 0 0 Z " fill="#4861FE" transform="translate(213,25)"/>
<path d="M0 0 C0.7513623 0.01087646 1.50272461 0.02175293 2.27685547 0.03295898 C10.58486064 0.27263037 15.86710352 2.16250149 21.921875 8.0703125 C26.76347785 14.87161173 28.1479375 21.21067299 27.953125 29.44140625 C27.94746521 30.36090561 27.94180542 31.28040497 27.93597412 32.22776794 C27.91378849 35.13156764 27.86362758 38.03408057 27.8125 40.9375 C27.7924119 42.91990391 27.7741652 44.90232738 27.7578125 46.88476562 C27.71398241 51.71533086 27.64508128 56.54494816 27.5625 61.375 C22.6125 61.375 17.6625 61.375 12.5625 61.375 C12.54791748 60.28558105 12.53333496 59.19616211 12.51831055 58.07373047 C12.46013928 54.01432215 12.38290818 49.95545763 12.30004883 45.89648438 C12.2668878 44.14299373 12.23882858 42.38939862 12.21606445 40.63574219 C12.1823553 38.10827302 12.13003308 35.58175362 12.07421875 33.0546875 C12.06782883 32.27632538 12.0614389 31.49796326 12.05485535 30.6960144 C11.92659342 25.89893355 11.2209067 22.52197332 8.5625 18.375 C5.41155867 16.27437245 4.3400634 16.03186714 0.6875 15.9375 C-0.15554688 15.89753906 -0.99859375 15.85757813 -1.8671875 15.81640625 C-5.71013708 16.65157614 -7.02500609 18.29556754 -9.4375 21.375 C-10.17078261 24.4540296 -10.15914158 27.45859057 -10.14453125 30.61328125 C-10.15965256 31.49404831 -10.17477386 32.37481537 -10.19035339 33.28227234 C-10.2332029 36.08427588 -10.24206556 38.88520158 -10.25 41.6875 C-10.2731465 43.59182547 -10.29851216 45.49612536 -10.32617188 47.40039062 C-10.38899697 52.05868891 -10.42135369 56.7163155 -10.4375 61.375 C-15.7175 61.375 -20.9975 61.375 -26.4375 61.375 C-26.53708872 55.71912654 -26.60930596 50.06377422 -26.65722656 44.40722656 C-26.67722336 42.48688861 -26.70443006 40.56661061 -26.73925781 38.64648438 C-27.14890977 15.46500306 -27.14890977 15.46500306 -19.125 6.4375 C-13.61113864 1.00374316 -7.41195882 -0.14505623 0 0 Z " fill="#4961FE" transform="translate(405.4375,23.625)"/>
<path d="M0 0 C4.95 0 9.9 0 15 0 C15.01458252 1.08941895 15.02916504 2.17883789 15.04418945 3.30126953 C15.10236072 7.36067785 15.17959182 11.41954237 15.26245117 15.47851562 C15.2956122 17.23200627 15.32367142 18.98560138 15.34643555 20.73925781 C15.3801447 23.26672698 15.43246692 25.79324638 15.48828125 28.3203125 C15.49467117 29.09867462 15.5010611 29.87703674 15.50764465 30.6789856 C15.63590658 35.47606645 16.3415933 38.85302668 19 43 C22.10986207 45.07324138 22.89108387 45.27392186 26.4375 45.25 C27.19933594 45.25515625 27.96117187 45.2603125 28.74609375 45.265625 C31.34919412 44.95884714 32.85152793 44.51442193 35 43 C37.40540899 38.51432474 37.34288563 34.161959 37.4140625 29.19921875 C37.43342865 28.36284378 37.4527948 27.52646881 37.4727478 26.66474915 C37.53230192 24.0057683 37.57883174 21.3467436 37.625 18.6875 C37.66320206 16.87953891 37.70225509 15.07159558 37.7421875 13.26367188 C37.83798345 8.84259302 37.92210331 4.42142899 38 0 C43.28 0 48.56 0 54 0 C54.0996177 5.51345681 54.1718191 11.02637828 54.21972656 16.54052734 C54.23971863 18.41236509 54.26692168 20.28414138 54.30175781 22.15576172 C54.51057723 33.67153866 54.60575282 42.93784568 48.125 52.875 C43.08938866 57.91061134 37.67997685 60.71563815 30.5625 61.265625 C29.386875 61.26046875 28.21125 61.2553125 27 61.25 C25.2365625 61.25773437 25.2365625 61.25773437 23.4375 61.265625 C15.91879278 60.68463399 10.54112784 57.60022383 5.3125 52.25 C0.45119842 45.41790048 -0.4403987 39.39599596 -0.29296875 31.25 C-0.28872391 30.35128174 -0.28447906 29.45256348 -0.28010559 28.52661133 C-0.26344584 25.68408988 -0.22581832 22.84230355 -0.1875 20 C-0.17243671 18.06120823 -0.15875119 16.12240523 -0.14648438 14.18359375 C-0.1135841 9.45545021 -0.06189115 4.72784931 0 0 Z " fill="#4860FE" transform="translate(156,25)"/>
<path d="M0 0 C1.2375 0.1546875 1.2375 0.1546875 2.5 0.3125 C4.44609349 3.23164023 4.78140044 4.05516672 5.0625 7.34301758 C5.13597656 8.15269485 5.20945312 8.96237213 5.28515625 9.79658508 C5.35605469 10.67453232 5.42695313 11.55247955 5.5 12.45703125 C5.62181641 13.83733772 5.62181641 13.83733772 5.74609375 15.24552917 C6.00544616 18.20471835 6.2529715 21.16475908 6.5 24.125 C6.66587113 26.04499077 6.83253016 27.96491364 7 29.88476562 C7.33580839 33.74128438 7.66551334 37.59826426 7.9921875 41.45556641 C8.3312629 45.42349654 8.6920878 49.38863952 9.0703125 53.35302734 C9.20953125 54.82481697 9.20953125 54.82481697 9.3515625 56.32633972 C9.52774009 58.17735464 9.70717594 60.02806378 9.890625 61.87837219 C11.30252984 76.79046065 11.30252984 76.79046065 8.6875 81.75 C6.48022199 84.33566852 4.85701204 86.09395499 1.4140625 86.6484375 C-2.71467052 86.71889369 -4.91215089 86.6799057 -8.5 84.4375 C-12.44442608 80.24654729 -11.72366685 76.33091013 -11.68261719 70.77929688 C-11.4048853 61.67155279 -10.16590624 52.60701309 -9.125 43.5625 C-8.9003336 41.56257942 -8.67637148 39.56257958 -8.453125 37.5625 C-8.01768663 33.6664893 -7.57428607 29.77150173 -7.12597656 25.87695312 C-6.70876135 22.22699498 -6.3205865 18.57589576 -5.95996094 14.91992188 C-5.87515472 14.0841864 -5.79034851 13.24845093 -5.70297241 12.38739014 C-5.54583523 10.82727215 -5.39554952 9.26644323 -5.25332642 7.70489502 C-4.52181944 0.56522743 -4.52181944 0.56522743 0 0 Z " fill="#33AE99" transform="translate(294.5,23.6875)"/>
<path d="M0 0 C3.81554592 3.43399133 6.2308342 6.24258978 6.703125 11.51953125 C6.80163333 16.86360816 6.63851342 20.70456678 3.5 25.25 C-1.29481272 29.68520177 -4.96433971 30.51331248 -11.29296875 30.390625 C-16.21710129 30.07687496 -18.54422637 28.40478534 -21.75 24.8125 C-25.18885984 20.70891209 -25.96574344 17.00112321 -25.9140625 11.73828125 C-25.15914283 7.20164137 -22.67862512 3.5113659 -19.5 0.25 C-13.34855219 -2.94753475 -6.1595493 -3.07977465 0 0 Z " fill="#FCFCFE" transform="translate(481.5,40.75)"/>
<path d="M0 0 C2.5 1.5 2.5 1.5 4 4 C4.60443392 6.80917861 4.66040854 9.19757073 4 12 C1.42627616 15.02791041 -0.15246594 15.86162709 -4.0625 16.5 C-7.64818067 15.88967138 -8.76863693 14.80986461 -11 12 C-12.42041821 9.15916359 -12.31452272 7.14522722 -12 4 C-9.04066865 -0.68560798 -5.11354027 -1.00594235 0 0 Z " fill="#32AD99" transform="translate(298,1)"/>
</svg>
